PathFileType	4	(X/Y/Z)	C:\Users\Basilio\Documents\Thesis Gigler\squatting_fais\c3dfiles\073\SJ_pre1\markers_experimental.trc
DataRate	CameraRate	NumFrames	NumMarkers	Units	OrigDataRate	OrigDataStartFrame	OrigNumFrames
200.000000	200.000000	4	61	mm	200.000000	1210	1383
Frame#	Time	FHD			LBHD			RBHD			C7			T10			CLAV			LSHO			LUUPA			LMUPA			LDUPA			LLEP			LMEP			LRAD			LUL			LRFIN			RSHO			RUPA1			RMUPA			RDUPA			RLEP			RMEP			RRAD			RUL			RUFIN			LASI			RASI			USACR			LSACR			RSACR			LTHI1			LTHI2			LTHI3			LTHI4			LLFC			LMFC			LTIB1			LTIB2			LTIB3			LTIB4			LLMAL			LMMAL			LHEE			LMT1			LMT2			LMT5			RTHI			RTHI2			RTHI3			RTHI4			RLFC			RMFC			RTIB1			RTIB2			RTIB3			RTIB4			RLMAL			RMMAL			RHEE			RMT1			RMT2			RMT5			
		X1	Y1	Z1	X2	Y2	Z2	X3	Y3	Z3	X4	Y4	Z4	X5	Y5	Z5	X6	Y6	Z6	X7	Y7	Z7	X8	Y8	Z8	X9	Y9	Z9	X10	Y10	Z10	X11	Y11	Z11	X12	Y12	Z12	X13	Y13	Z13	X14	Y14	Z14	X15	Y15	Z15	X16	Y16	Z16	X17	Y17	Z17	X18	Y18	Z18	X19	Y19	Z19	X20	Y20	Z20	X21	Y21	Z21	X22	Y22	Z22	X23	Y23	Z23	X24	Y24	Z24	X25	Y25	Z25	X26	Y26	Z26	X27	Y27	Z27	X28	Y28	Z28	X29	Y29	Z29	X30	Y30	Z30	X31	Y31	Z31	X32	Y32	Z32	X33	Y33	Z33	X34	Y34	Z34	X35	Y35	Z35	X36	Y36	Z36	X37	Y37	Z37	X38	Y38	Z38	X39	Y39	Z39	X40	Y40	Z40	X41	Y41	Z41	X42	Y42	Z42	X43	Y43	Z43	X44	Y44	Z44	X45	Y45	Z45	X46	Y46	Z46	X47	Y47	Z47	X48	Y48	Z48	X49	Y49	Z49	X50	Y50	Z50	X51	Y51	Z51	X52	Y52	Z52	X53	Y53	Z53	X54	Y54	Z54	X55	Y55	Z55	X56	Y56	Z56	X57	Y57	Z57	X58	Y58	Z58	X59	Y59	Z59	X60	Y60	Z60	X61	Y61	Z61	

1211	6.05	-149.454818725586	1549.311889648438	-912.7193603515627	-272.7345886230469	1613.653442382813	-928.0141601562502	-294.0487060546876	1613.068115234375	-793.5814208984377	-394.430633544922	1529.546752929688	-848.4163818359377	-526.7064208984376	1202.373046875	-854.0238037109377	-302.8880310058594	1410.074584960938	-862.254577636719	-340.3027343750001	1455.6328125	-1028.289306640625	-439.6832885742189	1388.499633789063	-1142.054931640625	-429.5984497070314	1339.75927734375	-1149.440063476563	-479.5174865722657	1348.177490234375	-1183.583740234375	-530.7795410156251	1271.422241210938	-1235.460815429688	-600.8056640625001	1264.885375976563	-1189.048828125	-476.3409118652345	1050.6923828125	-1095.707763671875	-448.0144958496095	1028.71875	-1160.8212890625	-433.336883544922	1035.965576171875	-1055.293823242188	-293.6807250976563	1434.359497070313	-690.9748535156251	-383.0307617187501	1360.60107421875	-545.6836547851564	-376.5588684082032	1311.506713867188	-543.1124877929689	-421.1663208007814	1320.214965820313	-503.1306457519532	-455.6197814941407	1244.190673828125	-461.0708312988282	-534.9409790039064	1246.144165039063	-510.7169494628907	-466.3267822265626	1032.42822265625	-625.1979980468751	-419.1199340820314	1003.576416015625	-571.9031982421876	-408.7125854492189	1018.232971191406	-674.1809082031251	-383.6113891601563	1035.248901367188	-1005.21630859375	-361.9309082031251	1010.259887695313	-751.9329833984376	-550.1100463867189	1087.12255859375	-852.9956665039065	-565.5275878906251	1060.295288085938	-880.7277832031252	-563.5791625976564	1055.704833984375	-825.308044433594	-422.4740600585939	726.1535034179689	-1099.435546875	-382.3867492675782	650.9243164062501	-1098.351684570313	-340.7137451171876	653.2261962890626	-1071.367309570313	-408.3377685546876	597.2200927734376	-1097.948120117188	-405.6401367187501	539.1536254882814	-1109.412719726563	-394.7478637695314	508.7686157226564	-975.0076904296877	-356.7830505371094	336.1198425292969	-1097.02587890625	-421.0703735351564	306.2415771484376	-1148.115966796875	-379.2189941406251	294.7537841796876	-1133.199829101563	-379.6235656738282	212.512435913086	-1113.300903320313	-446.4905395507814	95.93128967285158	-1151.238403320313	-428.7230529785157	112.0480880737305	-1063.887939453125	-501.4855041503907	56.51105117797853	-1108.12353515625	-274.6135559082032	61.87182235717775	-1088.599853515625	-275.7583007812501	66.83023834228517	-1127.069580078125	-314.7452697753907	44.3732032775879	-1178.648193359375	-464.6038208007814	794.5509033203127	-663.6154785156251	-431.8554687500001	737.4350585937501	-655.0255737304689	-398.026824951172	737.1438598632814	-658.9122314453126	-462.6136169433595	659.8381347656251	-671.5437011718751	-446.1637573242189	510.2371520996095	-670.8543701171876	-433.721893310547	484.1278381347657	-798.7522583007815	-394.3709106445314	341.0491638183594	-737.3337402343751	-420.8698730468751	265.8081970214844	-663.6476440429689	-393.7397766113282	260.9483642578126	-703.7704467773439	-408.1193847656251	212.214828491211	-732.2136840820314	-459.5644531250001	85.08528900146486	-670.2919311523439	-443.5382690429689	100.3454208374024	-758.2484130859376	-520.5808105468751	43.92940139770509	-727.1105346679689	-290.7130126953126	55.33712768554689	-709.9776611328126	-296.4891052246094	53.93409729003908	-669.5018310546876	-342.9154052734376	33.48813247680665	-625.1851196289064	
1212	6.055	-148.895004272461	1549.039916992188	-913.3193969726565	-272.1103210449219	1613.540283203125	-928.8527832031252	-293.0893859863282	1613.011596679688	-794.045593261719	-393.8825073242189	1529.486938476563	-849.2525024414065	-526.0808715820314	1202.230102539063	-854.5352172851565	-302.3083190917969	1410.008178710938	-862.941589355469	-339.7531738281251	1455.414916992188	-1029.10107421875	-439.1941833496095	1388.183837890625	-1142.7275390625	-428.7030334472657	1339.440185546875	-1150.332763671875	-479.0000610351564	1347.83740234375	-1184.249633789063	-530.2740478515626	1270.8916015625	-1236.140380859375	-600.2192993164064	1264.39306640625	-1189.514526367188	-475.6777648925782	1050.385498046875	-1096.215454101563	-447.207733154297	1028.458984375	-1161.207885742188	-432.5790405273439	1035.72802734375	-1055.74169921875	-293.0312500000001	1434.335327148438	-691.7538452148439	-382.1473388671876	1360.513671875	-546.4011230468751	-375.7290344238282	1311.385864257813	-543.8717041015626	-420.2573242187501	1320.158569335938	-503.8200988769532	-454.7179565429689	1244.143798828125	-461.6949157714845	-534.0438842773439	1246.088134765625	-511.271942138672	-465.1434631347657	1032.285522460938	-625.6865234375001	-418.1729736328126	1003.454833984375	-572.4548950195314	-407.8552246093751	1018.093688964844	-674.6483764648439	-382.8325500488282	1034.951782226563	-1005.614379882813	-361.1578063964844	1010.131164550781	-752.5130004882814	-549.3900146484376	1087.000122070313	-853.495788574219	-564.7779541015626	1060.174560546875	-881.1618652343752	-562.9178466796876	1055.612548828125	-825.8045043945315	-421.4625854492189	725.8790893554689	-1100.032836914063	-381.5480041503907	650.6462402343751	-1098.626342773438	-340.1315917968751	652.8269653320314	-1071.245971679688	-407.5542602539064	596.9704589843751	-1098.287963867188	-404.8208312988282	538.9362182617189	-1109.654296875	-395.0097656250001	508.3990478515626	-975.1343994140627	-355.4805297851563	336.0706176757813	-1097.1591796875	-419.3669433593751	305.9927368164063	-1148.679809570313	-377.5363464355469	294.7199401855469	-1133.549560546875	-377.6598815917969	212.3749237060547	-1113.61474609375	-444.1017150878907	95.74031066894533	-1152.105590820313	-426.6118469238282	111.6941452026367	-1064.803100585938	-498.8602294921876	55.97127532958986	-1109.385131835938	-272.1761779785157	61.90590667724611	-1088.785278320313	-273.2387390136719	66.95534515380861	-1127.321044921875	-312.2556762695313	44.68354415893555	-1179.226318359375	-464.1754455566407	794.6595458984377	-664.0222778320314	-431.6142883300782	737.4743041992189	-655.3264770507814	-397.7893371582032	737.0717773437501	-659.2356567382814	-462.5881347656251	660.0126953125001	-671.7886352539064	-446.5027465820314	510.2469177246095	-671.0552978515626	-434.0010681152345	484.0925598144532	-798.9548950195315	-394.4725036621095	341.0900878906251	-737.4582519531251	-421.0479431152345	265.8760986328126	-663.7619628906251	-393.8797607421876	261.0068054199219	-703.8847045898439	-408.184295654297	212.2093963623047	-732.3019409179689	-459.6048889160157	85.11283111572267	-670.3074340820314	-443.5231323242189	100.301383972168	-758.2982177734376	-520.5104980468751	43.93959045410157	-727.1791992187501	-290.6996154785157	55.32455444335939	-709.9586181640626	-296.4812927246094	53.93402481079103	-669.4828491210939	-342.8857421875001	33.46252822875977	-625.1402587890626	
1213	6.06	-147.6809692382813	1548.8935546875	-914.562194824219	-271.5540466308594	1613.422241210938	-929.818298339844	-292.5051269531251	1612.865844726563	-794.9582519531252	-393.3551330566407	1529.399658203125	-850.0098876953127	-525.3864746093751	1202.11962890625	-855.1670532226565	-301.7637939453126	1409.921875	-863.8195800781252	-339.4346618652344	1455.764770507813	-1029.91162109375	-438.6716918945314	1387.815185546875	-1143.551147460938	-428.1598205566407	1339.245239257813	-1151.017700195313	-478.3946533203126	1347.416625976563	-1184.952392578125	-529.7883911132814	1270.395263671875	-1236.751708984375	-599.7500000000001	1263.881713867188	-1190.0390625	-474.8771362304689	1050.023193359375	-1096.759155273438	-446.3238220214845	1028.171020507813	-1161.697509765625	-431.790985107422	1035.407836914063	-1056.2744140625	-292.4165039062501	1434.391357421875	-692.6120605468751	-381.3408203125001	1360.405395507813	-547.2204589843751	-374.9423828125001	1311.369506835938	-544.6600341796876	-419.3589477539064	1320.031982421875	-504.6250610351564	-453.8263244628907	1244.07958984375	-462.3995056152345	-533.1589355468751	1246.002075195313	-511.8706359863282	-464.4128723144532	1032.089599609375	-626.1792602539064	-417.2649841308595	1003.333129882813	-572.9678344726564	-407.0585021972657	1017.945861816406	-675.1975708007814	-382.0022277832032	1034.625122070313	-1006.199279785156	-360.3366088867188	1009.938049316406	-753.0278930664064	-548.6563110351564	1086.854370117188	-854.1257324218752	-563.9372558593751	1059.988159179688	-881.893005371094	-562.1024169921876	1055.445922851563	-826.407653808594	-420.5416870117189	725.5812377929689	-1100.61474609375	-380.5654907226563	650.3331298828126	-1098.77734375	-339.6084594726563	652.4219970703126	-1071.098022460938	-406.818328857422	596.7163085937501	-1098.576538085938	-403.946990966797	538.6507568359376	-1109.953491210938	-395.4324340820314	508.0205078125001	-975.376892089844	-354.2570800781251	336.0763549804688	-1097.369018554688	-417.9183349609376	305.7965087890626	-1149.18994140625	-375.8759155273438	294.6973571777344	-1133.803955078125	-375.7762756347657	212.3147888183594	-1114.246948242188	-441.6262817382814	95.53718566894533	-1152.895141601563	-424.6827392578126	111.3949127197266	-1065.635009765625	-496.5935974121095	55.50310134887697	-1110.629638671875	-269.9792175292969	61.91190338134767	-1088.879760742188	-270.7172546386719	67.06257629394533	-1127.224975585938	-309.3408813476563	44.59639739990235	-1179.412963867188	-463.7281494140626	794.7908325195315	-664.3809204101564	-431.3253784179689	737.4997558593751	-655.6707153320314	-397.4903869628907	737.0441284179689	-659.5692749023439	-462.5429687500001	660.0759277343751	-672.0950317382814	-446.7673645019532	510.2743530273439	-671.3184204101564	-434.2767944335939	484.0626525878907	-799.2920532226565	-394.6080932617189	341.1350402832032	-737.5911865234376	-421.1952209472657	265.9687194824219	-663.8827514648439	-393.994842529297	261.0261840820313	-704.0062255859376	-408.2843017578126	212.2360382080079	-732.3764648437501	-459.6535949707032	85.14609527587892	-670.3939819335939	-443.6174926757814	100.2567214965821	-758.2873535156251	-520.4821777343751	43.94683837890626	-727.2440185546876	-290.7055053710938	55.27840805053712	-709.9222412109376	-296.4520263671876	53.83392715454103	-669.4562988281251	-342.8832397460938	33.46262741088868	-625.1358642578126	
1214	6.065	-147.3455657958985	1548.69091796875	-915.3374023437502	-270.9726257324219	1613.250244140625	-930.7166137695315	-291.8669128417969	1612.802124023438	-795.932800292969	-392.8617248535157	1529.342651367188	-850.9849853515627	-524.7170410156251	1201.986328125	-855.906433105469	-301.2344360351563	1409.853515625	-864.7237548828127	-338.8131103515626	1455.15771484375	-1030.775390625	-438.287567138672	1387.407958984375	-1144.337280273438	-427.7375488281251	1338.770263671875	-1151.582641601563	-478.0562744140626	1347.034423828125	-1185.482177734375	-529.2750244140626	1269.972778320313	-1237.284057617188	-599.1091308593751	1263.27099609375	-1190.710693359375	-474.025115966797	1049.619384765625	-1097.306396484375	-445.4713134765626	1027.742431640625	-1162.378295898438	-430.8062744140626	1035.137084960938	-1056.864501953125	-291.8835144042969	1434.409423828125	-693.5925903320314	-380.6254882812501	1360.335693359375	-547.9877929687501	-374.2070617675782	1311.2265625	-545.4876098632814	-418.5578918457032	1320.0244140625	-505.3700256347657	-452.9664001464845	1244.0361328125	-463.1497192382814	-532.3984375000001	1245.845336914063	-512.5224609375001	-463.6359252929689	1031.961303710938	-626.7415161132814	-416.292205810547	1003.1982421875	-573.5477294921876	-406.2233886718751	1017.8212890625	-675.7584228515626	-381.0755310058594	1034.379760742188	-1006.934631347656	-359.5668945312501	1009.802368164063	-753.5582885742189	-547.9223632812501	1086.733642578125	-854.809265136719	-563.1984863281251	1059.852783203125	-882.4451293945315	-561.2792358398439	1055.29443359375	-827.1031494140627	-419.5861206054689	725.3584594726564	-1101.241333007813	-379.6116943359376	649.9297485351564	-1099.006103515625	-339.0063476562501	652.0646362304689	-1070.948364257813	-406.0950317382814	596.4668579101564	-1098.918090820313	-403.1245422363282	538.4137573242189	-1110.275390625	-395.480194091797	507.7032775878907	-975.3980712890627	-352.8965148925782	336.0545043945313	-1097.399536132813	-416.1220092773439	305.5806579589844	-1149.760498046875	-374.3545532226563	294.6514587402344	-1134.241577148438	-374.0740051269532	212.2405548095704	-1114.329223632813	-439.2409973144532	95.16687011718751	-1153.794067382813	-422.8022460937501	111.0569229125977	-1066.553344726563	-494.4664611816407	55.15681838989259	-1111.791748046875	-267.8640441894532	61.70503234863283	-1088.919799804688	-268.6624145507813	66.91558074951173	-1127.337768554688	-307.0565490722657	44.58183670043946	-1179.859619140625	-463.2905578613282	794.8964843750002	-664.7700195312501	-431.0540161132814	737.4899291992189	-656.0724487304689	-397.2316894531251	737.0163574218751	-659.9304809570314	-462.4710998535157	660.1893310546876	-672.3832397460939	-447.0197143554689	510.3230895996095	-671.5726928710939	-434.423309326172	484.0968627929689	-799.6096191406252	-394.7670898437501	341.1527404785157	-737.8011474609376	-421.3251953125001	266.0316467285157	-664.0417480468751	-394.104949951172	261.0885009765626	-704.0980224609376	-408.3342895507814	212.2929077148438	-732.4989013671876	-459.663787841797	85.16328430175783	-670.5316772460939	-443.5109252929689	100.2408905029297	-758.3795166015626	-520.4702148437501	43.97461700439454	-727.3323364257814	-290.9827880859376	55.29673767089845	-709.8334960937501	-296.4855346679688	53.86822509765626	-669.4871215820314	-342.8840026855469	33.46190643310548	-625.1414184570314	
